<svg height="9726" width="720" xmlns="http://www.w3.org/2000/svg">
<rect height="9726" fill="#555" width="720"></rect>
<text fill="#7f7" font-family="Courier New" font-size="12" xml:space="preserve">
<tspan x="10" y="26">80 megabytes installed</tspan>
<tspan x="10" y="42"></tspan>
<tspan x="10" y="58">node_modules</tspan>
<tspan x="10" y="74">└─┬ generator-angular-fullstack@4.1.4 </tspan>
<tspan x="10" y="90">  ├─┬ babel-core@6.24.1 </tspan>
<tspan x="10" y="106">  │ ├─┬ babel-code-frame@6.22.0 </tspan>
<tspan x="10" y="122">  │ │ ├── esutils@2.0.2 </tspan>
<tspan x="10" y="138">  │ │ └── js-tokens@3.0.1 </tspan>
<tspan x="10" y="154">  │ ├─┬ babel-generator@6.24.1 </tspan>
<tspan x="10" y="170">  │ │ ├─┬ detect-indent@4.0.0 </tspan>
<tspan x="10" y="186">  │ │ │ └─┬ repeating@2.0.1 </tspan>
<tspan x="10" y="202">  │ │ │   └── is-finite@1.0.2 </tspan>
<tspan x="10" y="218">  │ │ ├── jsesc@1.3.0 </tspan>
<tspan x="10" y="234">  │ │ └── trim-right@1.0.1 </tspan>
<tspan x="10" y="250">  │ ├── babel-helpers@6.24.1 </tspan>
<tspan x="10" y="266">  │ ├── babel-messages@6.23.0 </tspan>
<tspan x="10" y="282">  │ ├─┬ babel-runtime@6.23.0 </tspan>
<tspan x="10" y="298">  │ │ └── regenerator-runtime@0.10.3 </tspan>
<tspan x="10" y="314">  │ ├── babel-template@6.24.1 </tspan>
<tspan x="10" y="330">  │ ├─┬ babel-traverse@6.24.1 </tspan>
<tspan x="10" y="346">  │ │ ├── globals@9.17.0 </tspan>
<tspan x="10" y="362">  │ │ └─┬ invariant@2.2.2 </tspan>
<tspan x="10" y="378">  │ │   └── loose-envify@1.3.1 </tspan>
<tspan x="10" y="394">  │ ├─┬ babel-types@6.24.1 </tspan>
<tspan x="10" y="410">  │ │ └── to-fast-properties@1.0.2 </tspan>
<tspan x="10" y="426">  │ ├── babylon@6.16.1 </tspan>
<tspan x="10" y="442">  │ ├── convert-source-map@1.5.0 </tspan>
<tspan x="10" y="458">  │ ├─┬ debug@2.6.3 </tspan>
<tspan x="10" y="474">  │ │ └── ms@0.7.2 </tspan>
<tspan x="10" y="490">  │ ├── json5@0.5.1 </tspan>
<tspan x="10" y="506">  │ ├─┬ minimatch@3.0.3 </tspan>
<tspan x="10" y="522">  │ │ └─┬ brace-expansion@1.1.7 </tspan>
<tspan x="10" y="538">  │ │   ├── balanced-match@0.4.2 </tspan>
<tspan x="10" y="554">  │ │   └── concat-map@0.0.1 </tspan>
<tspan x="10" y="570">  │ ├── path-is-absolute@1.0.1 </tspan>
<tspan x="10" y="586">  │ ├── private@0.1.7 </tspan>
<tspan x="10" y="602">  │ ├── slash@1.0.0 </tspan>
<tspan x="10" y="618">  │ └── source-map@0.5.6 </tspan>
<tspan x="10" y="634">  ├── babel-eslint@7.2.1 </tspan>
<tspan x="10" y="650">  ├── babel-plugin-syntax-class-properties@6.13.0 </tspan>
<tspan x="10" y="666">  ├── babel-plugin-syntax-flow@6.18.0 </tspan>
<tspan x="10" y="682">  ├── babel-plugin-transform-flow-strip-types@6.22.0 </tspan>
<tspan x="10" y="698">  ├─┬ babel-register@6.24.1 </tspan>
<tspan x="10" y="714">  │ ├── core-js@2.4.1 </tspan>
<tspan x="10" y="730">  │ ├─┬ home-or-tmp@2.0.0 </tspan>
<tspan x="10" y="746">  │ │ ├── os-homedir@1.0.2 </tspan>
<tspan x="10" y="762">  │ │ └── os-tmpdir@1.0.2 </tspan>
<tspan x="10" y="778">  │ ├─┬ mkdirp@0.5.1 </tspan>
<tspan x="10" y="794">  │ │ └── minimist@0.0.8 </tspan>
<tspan x="10" y="810">  │ └── source-map-support@0.4.14 </tspan>
<tspan x="10" y="826">  ├── bluebird@3.5.0 </tspan>
<tspan x="10" y="842">  ├─┬ chalk@1.1.3 </tspan>
<tspan x="10" y="858">  │ ├── ansi-styles@2.2.1 </tspan>
<tspan x="10" y="874">  │ ├── escape-string-regexp@1.0.5 </tspan>
<tspan x="10" y="890">  │ ├─┬ has-ansi@2.0.0 </tspan>
<tspan x="10" y="906">  │ │ └── ansi-regex@2.1.1 </tspan>
<tspan x="10" y="922">  │ ├── strip-ansi@3.0.1 </tspan>
<tspan x="10" y="938">  │ └── supports-color@2.0.0 </tspan>
<tspan x="10" y="954">  ├─┬ generator-ng-component@1.0.5 </tspan>
<tspan x="10" y="970">  │ └─┬ yeoman-generator@0.23.4 </tspan>
<tspan x="10" y="986">  │   ├── cross-spawn@3.0.1 </tspan>
<tspan x="10" y="1002">  │   ├─┬ download@4.4.3 </tspan>
<tspan x="10" y="1018">  │   │ ├─┬ caw@1.2.0 </tspan>
<tspan x="10" y="1034">  │   │ │ ├─┬ get-proxy@1.1.0 </tspan>
<tspan x="10" y="1050">  │   │ │ │ └─┬ rc@1.2.1 </tspan>
<tspan x="10" y="1066">  │   │ │ │   └── minimist@1.2.0 </tspan>
<tspan x="10" y="1082">  │   │ │ ├── is-obj@1.0.1 </tspan>
<tspan x="10" y="1098">  │   │ │ ├── object-assign@3.0.0 </tspan>
<tspan x="10" y="1114">  │   │ │ └── tunnel-agent@0.4.3 </tspan>
<tspan x="10" y="1130">  │   │ ├─┬ each-async@1.1.1 </tspan>
<tspan x="10" y="1146">  │   │ │ ├── onetime@1.1.0 </tspan>
<tspan x="10" y="1162">  │   │ │ └── set-immediate-shim@1.0.1 </tspan>
<tspan x="10" y="1178">  │   │ ├─┬ filenamify@1.2.1 </tspan>
<tspan x="10" y="1194">  │   │ │ ├── filename-reserved-regex@1.0.0 </tspan>
<tspan x="10" y="1210">  │   │ │ ├── strip-outer@1.0.0 </tspan>
<tspan x="10" y="1226">  │   │ │ └── trim-repeated@1.0.0 </tspan>
<tspan x="10" y="1242">  │   │ ├─┬ got@5.7.1 </tspan>
<tspan x="10" y="1258">  │   │ │ ├─┬ create-error-class@3.0.2 </tspan>
<tspan x="10" y="1274">  │   │ │ │ └── capture-stack-trace@1.0.0 </tspan>
<tspan x="10" y="1290">  │   │ │ ├── duplexer2@0.1.4 </tspan>
<tspan x="10" y="1306">  │   │ │ ├── is-redirect@1.0.0 </tspan>
<tspan x="10" y="1322">  │   │ │ ├── is-retry-allowed@1.1.0 </tspan>
<tspan x="10" y="1338">  │   │ │ ├── is-stream@1.1.0 </tspan>
<tspan x="10" y="1354">  │   │ │ ├── lowercase-keys@1.0.0 </tspan>
<tspan x="10" y="1370">  │   │ │ ├── node-status-codes@1.0.0 </tspan>
<tspan x="10" y="1386">  │   │ │ ├── object-assign@4.1.1 </tspan>
<tspan x="10" y="1402">  │   │ │ ├─┬ parse-json@2.2.0 </tspan>
<tspan x="10" y="1418">  │   │ │ │ └─┬ error-ex@1.3.1 </tspan>
<tspan x="10" y="1434">  │   │ │ │   └── is-arrayish@0.2.1 </tspan>
<tspan x="10" y="1450">  │   │ │ ├── timed-out@3.1.3 </tspan>
<tspan x="10" y="1466">  │   │ │ ├── unzip-response@1.0.2 </tspan>
<tspan x="10" y="1482">  │   │ │ └─┬ url-parse-lax@1.0.0 </tspan>
<tspan x="10" y="1498">  │   │ │   └── prepend-http@1.0.4 </tspan>
<tspan x="10" y="1514">  │   │ ├─┬ gulp-decompress@1.2.0 </tspan>
<tspan x="10" y="1530">  │   │ │ ├─┬ archive-type@3.2.0 </tspan>
<tspan x="10" y="1546">  │   │ │ │ └── file-type@3.9.0 </tspan>
<tspan x="10" y="1562">  │   │ │ └─┬ decompress@3.0.0 </tspan>
<tspan x="10" y="1578">  │   │ │   ├── buffer-to-vinyl@1.1.0 </tspan>
<tspan x="10" y="1594">  │   │ │   ├─┬ decompress-tar@3.1.0 </tspan>
<tspan x="10" y="1610">  │   │ │   │ ├── is-tar@1.0.0 </tspan>
<tspan x="10" y="1626">  │   │ │   │ ├─┬ strip-dirs@1.1.1 </tspan>
<tspan x="10" y="1642">  │   │ │   │ │ ├─┬ is-absolute@0.1.7 </tspan>
<tspan x="10" y="1658">  │   │ │   │ │ │ └── is-relative@0.1.3 </tspan>
<tspan x="10" y="1674">  │   │ │   │ │ ├── is-natural-number@2.1.1 </tspan>
<tspan x="10" y="1690">  │   │ │   │ │ ├── minimist@1.2.0 </tspan>
<tspan x="10" y="1706">  │   │ │   │ │ └── sum-up@1.0.3 </tspan>
<tspan x="10" y="1722">  │   │ │   │ ├─┬ tar-stream@1.5.2 </tspan>
<tspan x="10" y="1738">  │   │ │   │ │ ├── bl@1.2.0 </tspan>
<tspan x="10" y="1754">  │   │ │   │ │ └── end-of-stream@1.4.0 </tspan>
<tspan x="10" y="1770">  │   │ │   │ ├─┬ through2@0.6.5 </tspan>
<tspan x="10" y="1786">  │   │ │   │ │ └─┬ readable-stream@1.0.34 </tspan>
<tspan x="10" y="1802">  │   │ │   │ │   ├── isarray@0.0.1 </tspan>
<tspan x="10" y="1818">  │   │ │   │ │   └── string_decoder@0.10.31 </tspan>
<tspan x="10" y="1834">  │   │ │   │ └─┬ vinyl@0.4.6 </tspan>
<tspan x="10" y="1850">  │   │ │   │   └── clone@0.2.0 </tspan>
<tspan x="10" y="1866">  │   │ │   ├─┬ decompress-tarbz2@3.1.0 </tspan>
<tspan x="10" y="1882">  │   │ │   │ ├── is-bzip2@1.0.0 </tspan>
<tspan x="10" y="1898">  │   │ │   │ ├─┬ seek-bzip@1.0.5 </tspan>
<tspan x="10" y="1914">  │   │ │   │ │ └── commander@2.8.1 </tspan>
<tspan x="10" y="1930">  │   │ │   │ ├─┬ through2@0.6.5 </tspan>
<tspan x="10" y="1946">  │   │ │   │ │ └─┬ readable-stream@1.0.34 </tspan>
<tspan x="10" y="1962">  │   │ │   │ │   ├── isarray@0.0.1 </tspan>
<tspan x="10" y="1978">  │   │ │   │ │   └── string_decoder@0.10.31 </tspan>
<tspan x="10" y="1994">  │   │ │   │ └─┬ vinyl@0.4.6 </tspan>
<tspan x="10" y="2010">  │   │ │   │   └── clone@0.2.0 </tspan>
<tspan x="10" y="2026">  │   │ │   ├─┬ decompress-targz@3.1.0 </tspan>
<tspan x="10" y="2042">  │   │ │   │ ├── is-gzip@1.0.0 </tspan>
<tspan x="10" y="2058">  │   │ │   │ ├─┬ through2@0.6.5 </tspan>
<tspan x="10" y="2074">  │   │ │   │ │ └─┬ readable-stream@1.0.34 </tspan>
<tspan x="10" y="2090">  │   │ │   │ │   ├── isarray@0.0.1 </tspan>
<tspan x="10" y="2106">  │   │ │   │ │   └── string_decoder@0.10.31 </tspan>
<tspan x="10" y="2122">  │   │ │   │ └─┬ vinyl@0.4.6 </tspan>
<tspan x="10" y="2138">  │   │ │   │   └── clone@0.2.0 </tspan>
<tspan x="10" y="2154">  │   │ │   ├─┬ decompress-unzip@3.4.0 </tspan>
<tspan x="10" y="2170">  │   │ │   │ ├── is-zip@1.0.0 </tspan>
<tspan x="10" y="2186">  │   │ │   │ ├── stat-mode@0.2.2 </tspan>
<tspan x="10" y="2202">  │   │ │   │ └─┬ yauzl@2.7.0 </tspan>
<tspan x="10" y="2218">  │   │ │   │   ├── buffer-crc32@0.2.13 </tspan>
<tspan x="10" y="2234">  │   │ │   │   └─┬ fd-slicer@1.0.1 </tspan>
<tspan x="10" y="2250">  │   │ │   │     └── pend@1.2.0 </tspan>
<tspan x="10" y="2266">  │   │ │   └─┬ vinyl-assign@1.2.1 </tspan>
<tspan x="10" y="2282">  │   │ │     └── object-assign@4.1.1 </tspan>
<tspan x="10" y="2298">  │   │ ├── gulp-rename@1.2.2 </tspan>
<tspan x="10" y="2314">  │   │ ├── is-url@1.2.2 </tspan>
<tspan x="10" y="2330">  │   │ ├── object-assign@4.1.1 </tspan>
<tspan x="10" y="2346">  │   │ ├── read-all-stream@3.1.0 </tspan>
<tspan x="10" y="2362">  │   │ ├── stream-combiner2@1.1.1 </tspan>
<tspan x="10" y="2378">  │   │ ├─┬ vinyl-fs@2.4.4 </tspan>
<tspan x="10" y="2394">  │   │ │ ├─┬ duplexify@3.5.0 </tspan>
<tspan x="10" y="2410">  │   │ │ │ ├─┬ end-of-stream@1.0.0 </tspan>
<tspan x="10" y="2426">  │   │ │ │ │ └── once@1.3.3 </tspan>
<tspan x="10" y="2442">  │   │ │ │ └── stream-shift@1.0.0 </tspan>
<tspan x="10" y="2458">  │   │ │ ├─┬ glob-stream@5.3.5 </tspan>
<tspan x="10" y="2474">  │   │ │ │ ├── glob@5.0.15 </tspan>
<tspan x="10" y="2490">  │   │ │ │ ├─┬ glob-parent@3.1.0 </tspan>
<tspan x="10" y="2506">  │   │ │ │ │ ├─┬ is-glob@3.1.0 </tspan>
<tspan x="10" y="2522">  │   │ │ │ │ │ └── is-extglob@2.1.1 </tspan>
<tspan x="10" y="2538">  │   │ │ │ │ └── path-dirname@1.0.2 </tspan>
<tspan x="10" y="2554">  │   │ │ │ ├─┬ micromatch@2.3.11 </tspan>
<tspan x="10" y="2570">  │   │ │ │ │ ├─┬ arr-diff@2.0.0 </tspan>
<tspan x="10" y="2586">  │   │ │ │ │ │ └── arr-flatten@1.0.1 </tspan>
<tspan x="10" y="2602">  │   │ │ │ │ ├── array-unique@0.2.1 </tspan>
<tspan x="10" y="2618">  │   │ │ │ │ ├─┬ braces@1.8.5 </tspan>
<tspan x="10" y="2634">  │   │ │ │ │ │ ├─┬ expand-range@1.8.2 </tspan>
<tspan x="10" y="2650">  │   │ │ │ │ │ │ └─┬ fill-range@2.2.3 </tspan>
<tspan x="10" y="2666">  │   │ │ │ │ │ │   ├── is-number@2.1.0 </tspan>
<tspan x="10" y="2682">  │   │ │ │ │ │ │   ├── isobject@2.1.0 </tspan>
<tspan x="10" y="2698">  │   │ │ │ │ │ │   ├── randomatic@1.1.6 </tspan>
<tspan x="10" y="2714">  │   │ │ │ │ │ │   └── repeat-string@1.6.1 </tspan>
<tspan x="10" y="2730">  │   │ │ │ │ │ ├── preserve@0.2.0 </tspan>
<tspan x="10" y="2746">  │   │ │ │ │ │ └── repeat-element@1.1.2 </tspan>
<tspan x="10" y="2762">  │   │ │ │ │ ├─┬ expand-brackets@0.1.5 </tspan>
<tspan x="10" y="2778">  │   │ │ │ │ │ └── is-posix-bracket@0.1.1 </tspan>
<tspan x="10" y="2794">  │   │ │ │ │ ├─┬ extglob@0.3.2 </tspan>
<tspan x="10" y="2810">  │   │ │ │ │ │ └── is-extglob@1.0.0 </tspan>
<tspan x="10" y="2826">  │   │ │ │ │ ├── filename-regex@2.0.0 </tspan>
<tspan x="10" y="2842">  │   │ │ │ │ ├── is-extglob@1.0.0 </tspan>
<tspan x="10" y="2858">  │   │ │ │ │ ├── is-glob@2.0.1 </tspan>
<tspan x="10" y="2874">  │   │ │ │ │ ├─┬ kind-of@3.1.0 </tspan>
<tspan x="10" y="2890">  │   │ │ │ │ │ └── is-buffer@1.1.5 </tspan>
<tspan x="10" y="2906">  │   │ │ │ │ ├─┬ normalize-path@2.1.1 </tspan>
<tspan x="10" y="2922">  │   │ │ │ │ │ └── remove-trailing-separator@1.0.1 </tspan>
<tspan x="10" y="2938">  │   │ │ │ │ ├─┬ object.omit@2.0.1 </tspan>
<tspan x="10" y="2954">  │   │ │ │ │ │ ├─┬ for-own@0.1.5 </tspan>
<tspan x="10" y="2970">  │   │ │ │ │ │ │ └── for-in@1.0.2 </tspan>
<tspan x="10" y="2986">  │   │ │ │ │ │ └── is-extendable@0.1.1 </tspan>
<tspan x="10" y="3002">  │   │ │ │ │ ├─┬ parse-glob@3.0.4 </tspan>
<tspan x="10" y="3018">  │   │ │ │ │ │ ├─┬ glob-base@0.3.0 </tspan>
<tspan x="10" y="3034">  │   │ │ │ │ │ │ ├── glob-parent@2.0.0 </tspan>
<tspan x="10" y="3050">  │   │ │ │ │ │ │ └─┬ is-glob@2.0.1 </tspan>
<tspan x="10" y="3066">  │   │ │ │ │ │ │   └── is-extglob@1.0.0 </tspan>
<tspan x="10" y="3082">  │   │ │ │ │ │ ├── is-dotfile@1.0.2 </tspan>
<tspan x="10" y="3098">  │   │ │ │ │ │ ├── is-extglob@1.0.0 </tspan>
<tspan x="10" y="3114">  │   │ │ │ │ │ └── is-glob@2.0.1 </tspan>
<tspan x="10" y="3130">  │   │ │ │ │ └─┬ regex-cache@0.4.3 </tspan>
<tspan x="10" y="3146">  │   │ │ │ │   ├── is-equal-shallow@0.1.3 </tspan>
<tspan x="10" y="3162">  │   │ │ │ │   └── is-primitive@2.0.0 </tspan>
<tspan x="10" y="3178">  │   │ │ │ ├── ordered-read-streams@0.3.0 </tspan>
<tspan x="10" y="3194">  │   │ │ │ ├─┬ through2@0.6.5 </tspan>
<tspan x="10" y="3210">  │   │ │ │ │ └─┬ readable-stream@1.0.34 </tspan>
<tspan x="10" y="3226">  │   │ │ │ │   ├── isarray@0.0.1 </tspan>
<tspan x="10" y="3242">  │   │ │ │ │   └── string_decoder@0.10.31 </tspan>
<tspan x="10" y="3258">  │   │ │ │ ├─┬ to-absolute-glob@0.1.1 </tspan>
<tspan x="10" y="3274">  │   │ │ │ │ └── extend-shallow@2.0.1 </tspan>
<tspan x="10" y="3290">  │   │ │ │ └── unique-stream@2.2.1 </tspan>
<tspan x="10" y="3306">  │   │ │ ├── gulp-sourcemaps@1.6.0 </tspan>
<tspan x="10" y="3322">  │   │ │ ├── is-valid-glob@0.3.0 </tspan>
<tspan x="10" y="3338">  │   │ │ ├── lazystream@1.0.0 </tspan>
<tspan x="10" y="3354">  │   │ │ ├── lodash.isequal@4.5.0 </tspan>
<tspan x="10" y="3370">  │   │ │ ├── merge-stream@1.0.1 </tspan>
<tspan x="10" y="3386">  │   │ │ ├── object-assign@4.1.1 </tspan>
<tspan x="10" y="3402">  │   │ │ ├─┬ strip-bom@2.0.0 </tspan>
<tspan x="10" y="3418">  │   │ │ │ └── is-utf8@0.2.1 </tspan>
<tspan x="10" y="3434">  │   │ │ ├─┬ strip-bom-stream@1.0.0 </tspan>
<tspan x="10" y="3450">  │   │ │ │ └── first-chunk-stream@1.0.0 </tspan>
<tspan x="10" y="3466">  │   │ │ ├── through2-filter@2.0.0 </tspan>
<tspan x="10" y="3482">  │   │ │ └── vali-date@1.0.0 </tspan>
<tspan x="10" y="3498">  │   │ └─┬ ware@1.3.0 </tspan>
<tspan x="10" y="3514">  │   │   └─┬ wrap-fn@0.1.5 </tspan>
<tspan x="10" y="3530">  │   │     └── co@3.1.0 </tspan>
<tspan x="10" y="3546">  │   ├── istextorbinary@1.0.2 </tspan>
<tspan x="10" y="3562">  │   └── xdg-basedir@2.0.0 </tspan>
<tspan x="10" y="3578">  ├─┬ glob@7.1.1 </tspan>
<tspan x="10" y="3594">  │ ├── fs.realpath@1.0.0 </tspan>
<tspan x="10" y="3610">  │ ├─┬ inflight@1.0.6 </tspan>
<tspan x="10" y="3626">  │ │ └── wrappy@1.0.2 </tspan>
<tspan x="10" y="3642">  │ ├── inherits@2.0.3 </tspan>
<tspan x="10" y="3658">  │ └── once@1.4.0 </tspan>
<tspan x="10" y="3674">  ├─┬ gulp-babel@6.1.2 </tspan>
<tspan x="10" y="3690">  │ ├─┬ gulp-util@3.0.8 </tspan>
<tspan x="10" y="3706">  │ │ ├── array-differ@1.0.0 </tspan>
<tspan x="10" y="3722">  │ │ ├── array-uniq@1.0.3 </tspan>
<tspan x="10" y="3738">  │ │ ├── beeper@1.1.1 </tspan>
<tspan x="10" y="3754">  │ │ ├── dateformat@2.0.0 </tspan>
<tspan x="10" y="3770">  │ │ ├─┬ fancy-log@1.3.0 </tspan>
<tspan x="10" y="3786">  │ │ │ └── time-stamp@1.0.1 </tspan>
<tspan x="10" y="3802">  │ │ ├─┬ gulplog@1.0.0 </tspan>
<tspan x="10" y="3818">  │ │ │ └── glogg@1.0.0 </tspan>
<tspan x="10" y="3834">  │ │ ├─┬ has-gulplog@0.1.0 </tspan>
<tspan x="10" y="3850">  │ │ │ └── sparkles@1.0.0 </tspan>
<tspan x="10" y="3866">  │ │ ├── lodash._reescape@3.0.0 </tspan>
<tspan x="10" y="3882">  │ │ ├── lodash._reevaluate@3.0.0 </tspan>
<tspan x="10" y="3898">  │ │ ├── lodash._reinterpolate@3.0.0 </tspan>
<tspan x="10" y="3914">  │ │ ├─┬ lodash.template@3.6.2 </tspan>
<tspan x="10" y="3930">  │ │ │ ├── lodash._basecopy@3.0.1 </tspan>
<tspan x="10" y="3946">  │ │ │ ├── lodash._basetostring@3.0.1 </tspan>
<tspan x="10" y="3962">  │ │ │ ├── lodash._basevalues@3.0.0 </tspan>
<tspan x="10" y="3978">  │ │ │ ├── lodash._isiterateecall@3.0.9 </tspan>
<tspan x="10" y="3994">  │ │ │ ├─┬ lodash.escape@3.2.0 </tspan>
<tspan x="10" y="4010">  │ │ │ │ └── lodash._root@3.0.1 </tspan>
<tspan x="10" y="4026">  │ │ │ ├─┬ lodash.keys@3.1.2 </tspan>
<tspan x="10" y="4042">  │ │ │ │ ├── lodash.isarguments@3.1.0 </tspan>
<tspan x="10" y="4058">  │ │ │ │ └── lodash.isarray@3.0.4 </tspan>
<tspan x="10" y="4074">  │ │ │ ├── lodash.restparam@3.6.1 </tspan>
<tspan x="10" y="4090">  │ │ │ └── lodash.templatesettings@3.1.1 </tspan>
<tspan x="10" y="4106">  │ │ ├── minimist@1.2.0 </tspan>
<tspan x="10" y="4122">  │ │ ├─┬ multipipe@0.1.2 </tspan>
<tspan x="10" y="4138">  │ │ │ └─┬ duplexer2@0.0.2 </tspan>
<tspan x="10" y="4154">  │ │ │   └─┬ readable-stream@1.1.14 </tspan>
<tspan x="10" y="4170">  │ │ │     ├── isarray@0.0.1 </tspan>
<tspan x="10" y="4186">  │ │ │     └── string_decoder@0.10.31 </tspan>
<tspan x="10" y="4202">  │ │ ├── object-assign@3.0.0 </tspan>
<tspan x="10" y="4218">  │ │ └─┬ vinyl@0.5.3 </tspan>
<tspan x="10" y="4234">  │ │   ├── clone@1.0.2 </tspan>
<tspan x="10" y="4250">  │ │   └── clone-stats@0.0.1 </tspan>
<tspan x="10" y="4266">  │ ├── object-assign@4.1.1 </tspan>
<tspan x="10" y="4282">  │ ├── replace-ext@0.0.1 </tspan>
<tspan x="10" y="4298">  │ ├─┬ through2@2.0.3 </tspan>
<tspan x="10" y="4314">  │ │ ├─┬ readable-stream@2.2.9 </tspan>
<tspan x="10" y="4330">  │ │ │ ├── buffer-shims@1.0.0 </tspan>
<tspan x="10" y="4346">  │ │ │ ├── core-util-is@1.0.2 </tspan>
<tspan x="10" y="4362">  │ │ │ ├── isarray@1.0.0 </tspan>
<tspan x="10" y="4378">  │ │ │ ├── process-nextick-args@1.0.7 </tspan>
<tspan x="10" y="4394">  │ │ │ └── string_decoder@1.0.0 </tspan>
<tspan x="10" y="4410">  │ │ └── xtend@4.0.1 </tspan>
<tspan x="10" y="4426">  │ └── vinyl-sourcemaps-apply@0.2.1 </tspan>
<tspan x="10" y="4442">  ├─┬ gulp-beautify@2.0.1 </tspan>
<tspan x="10" y="4458">  │ ├─┬ js-beautify@1.6.12 </tspan>
<tspan x="10" y="4474">  │ │ ├─┬ config-chain@1.1.11 </tspan>
<tspan x="10" y="4490">  │ │ │ ├── ini@1.3.4 </tspan>
<tspan x="10" y="4506">  │ │ │ └── proto-list@1.2.4 </tspan>
<tspan x="10" y="4522">  │ │ └─┬ editorconfig@0.13.2 </tspan>
<tspan x="10" y="4538">  │ │   ├─┬ commander@2.9.0 </tspan>
<tspan x="10" y="4554">  │ │   │ └── graceful-readlink@1.0.1 </tspan>
<tspan x="10" y="4570">  │ │   ├── lru-cache@3.2.0 </tspan>
<tspan x="10" y="4586">  │ │   └── sigmund@1.0.1 </tspan>
<tspan x="10" y="4602">  │ └─┬ rcloader@0.2.2 </tspan>
<tspan x="10" y="4618">  │   ├── lodash.assign@4.2.0 </tspan>
<tspan x="10" y="4634">  │   ├── lodash.isobject@3.0.2 </tspan>
<tspan x="10" y="4650">  │   ├── lodash.merge@4.6.0 </tspan>
<tspan x="10" y="4666">  │   └─┬ rcfinder@0.1.9 </tspan>
<tspan x="10" y="4682">  │     └── lodash.clonedeep@4.5.0 </tspan>
<tspan x="10" y="4698">  ├─┬ gulp-eslint@3.0.1 </tspan>
<tspan x="10" y="4714">  │ ├── bufferstreams@1.1.1 </tspan>
<tspan x="10" y="4730">  │ └─┬ eslint@3.19.0 </tspan>
<tspan x="10" y="4746">  │   ├─┬ concat-stream@1.6.0 </tspan>
<tspan x="10" y="4762">  │   │ └── typedarray@0.0.6 </tspan>
<tspan x="10" y="4778">  │   ├── doctrine@2.0.0 </tspan>
<tspan x="10" y="4794">  │   ├─┬ escope@3.6.0 </tspan>
<tspan x="10" y="4810">  │   │ ├─┬ es6-map@0.1.5 </tspan>
<tspan x="10" y="4826">  │   │ │ ├── d@1.0.0 </tspan>
<tspan x="10" y="4842">  │   │ │ ├── es5-ext@0.10.15 </tspan>
<tspan x="10" y="4858">  │   │ │ ├── es6-iterator@2.0.1 </tspan>
<tspan x="10" y="4874">  │   │ │ ├── es6-set@0.1.5 </tspan>
<tspan x="10" y="4890">  │   │ │ ├── es6-symbol@3.1.1 </tspan>
<tspan x="10" y="4906">  │   │ │ └── event-emitter@0.3.5 </tspan>
<tspan x="10" y="4922">  │   │ ├── es6-weak-map@2.0.2 </tspan>
<tspan x="10" y="4938">  │   │ ├─┬ esrecurse@4.1.0 </tspan>
<tspan x="10" y="4954">  │   │ │ ├── estraverse@4.1.1 </tspan>
<tspan x="10" y="4970">  │   │ │ └── object-assign@4.1.1 </tspan>
<tspan x="10" y="4986">  │   │ └── estraverse@4.2.0 </tspan>
<tspan x="10" y="5002">  │   ├─┬ espree@3.4.1 </tspan>
<tspan x="10" y="5018">  │   │ ├── acorn@5.0.3 </tspan>
<tspan x="10" y="5034">  │   │ └─┬ acorn-jsx@3.0.1 </tspan>
<tspan x="10" y="5050">  │   │   └── acorn@3.3.0 </tspan>
<tspan x="10" y="5066">  │   ├─┬ esquery@1.0.0 </tspan>
<tspan x="10" y="5082">  │   │ └── estraverse@4.2.0 </tspan>
<tspan x="10" y="5098">  │   ├── estraverse@4.2.0 </tspan>
<tspan x="10" y="5114">  │   ├─┬ file-entry-cache@2.0.0 </tspan>
<tspan x="10" y="5130">  │   │ ├─┬ flat-cache@1.2.2 </tspan>
<tspan x="10" y="5146">  │   │ │ ├── circular-json@0.3.1 </tspan>
<tspan x="10" y="5162">  │   │ │ ├─┬ del@2.2.2 </tspan>
<tspan x="10" y="5178">  │   │ │ │ ├── globby@5.0.0 </tspan>
<tspan x="10" y="5194">  │   │ │ │ ├── is-path-cwd@1.0.0 </tspan>
<tspan x="10" y="5210">  │   │ │ │ ├─┬ is-path-in-cwd@1.0.0 </tspan>
<tspan x="10" y="5226">  │   │ │ │ │ └── is-path-inside@1.0.0 </tspan>
<tspan x="10" y="5242">  │   │ │ │ └── object-assign@4.1.1 </tspan>
<tspan x="10" y="5258">  │   │ │ └── write@0.2.1 </tspan>
<tspan x="10" y="5274">  │   │ └── object-assign@4.1.1 </tspan>
<tspan x="10" y="5290">  │   ├── ignore@3.2.7 </tspan>
<tspan x="10" y="5306">  │   ├── imurmurhash@0.1.4 </tspan>
<tspan x="10" y="5322">  │   ├─┬ inquirer@0.12.0 </tspan>
<tspan x="10" y="5338">  │   │ ├── cli-width@2.1.0 </tspan>
<tspan x="10" y="5354">  │   │ ├── run-async@0.1.0 </tspan>
<tspan x="10" y="5370">  │   │ └── string-width@1.0.2 </tspan>
<tspan x="10" y="5386">  │   ├─┬ is-my-json-valid@2.16.0 </tspan>
<tspan x="10" y="5402">  │   │ ├── generate-function@2.0.0 </tspan>
<tspan x="10" y="5418">  │   │ ├─┬ generate-object-property@1.2.0 </tspan>
<tspan x="10" y="5434">  │   │ │ └── is-property@1.0.2 </tspan>
<tspan x="10" y="5450">  │   │ └── jsonpointer@4.0.1 </tspan>
<tspan x="10" y="5466">  │   ├─┬ is-resolvable@1.0.0 </tspan>
<tspan x="10" y="5482">  │   │ └── tryit@1.0.3 </tspan>
<tspan x="10" y="5498">  │   ├─┬ js-yaml@3.8.3 </tspan>
<tspan x="10" y="5514">  │   │ ├── argparse@1.0.9 </tspan>
<tspan x="10" y="5530">  │   │ └── esprima@3.1.3 </tspan>
<tspan x="10" y="5546">  │   ├─┬ json-stable-stringify@1.0.1 </tspan>
<tspan x="10" y="5562">  │   │ └── jsonify@0.0.0 </tspan>
<tspan x="10" y="5578">  │   ├─┬ levn@0.3.0 </tspan>
<tspan x="10" y="5594">  │   │ ├── prelude-ls@1.1.2 </tspan>
<tspan x="10" y="5610">  │   │ └── type-check@0.3.2 </tspan>
<tspan x="10" y="5626">  │   ├── natural-compare@1.4.0 </tspan>
<tspan x="10" y="5642">  │   ├─┬ optionator@0.8.2 </tspan>
<tspan x="10" y="5658">  │   │ ├── deep-is@0.1.3 </tspan>
<tspan x="10" y="5674">  │   │ ├── fast-levenshtein@2.0.6 </tspan>
<tspan x="10" y="5690">  │   │ └── wordwrap@1.0.0 </tspan>
<tspan x="10" y="5706">  │   ├── path-is-inside@1.0.2 </tspan>
<tspan x="10" y="5722">  │   ├── pluralize@1.2.1 </tspan>
<tspan x="10" y="5738">  │   ├── progress@1.1.8 </tspan>
<tspan x="10" y="5754">  │   ├─┬ require-uncached@1.0.3 </tspan>
<tspan x="10" y="5770">  │   │ ├─┬ caller-path@0.1.0 </tspan>
<tspan x="10" y="5786">  │   │ │ └── callsites@0.2.0 </tspan>
<tspan x="10" y="5802">  │   │ └── resolve-from@1.0.1 </tspan>
<tspan x="10" y="5818">  │   ├── strip-bom@3.0.0 </tspan>
<tspan x="10" y="5834">  │   ├── strip-json-comments@2.0.1 </tspan>
<tspan x="10" y="5850">  │   └─┬ table@3.8.3 </tspan>
<tspan x="10" y="5866">  │     ├─┬ ajv@4.11.6 </tspan>
<tspan x="10" y="5882">  │     │ └── co@4.6.0 </tspan>
<tspan x="10" y="5898">  │     ├── ajv-keywords@1.5.1 </tspan>
<tspan x="10" y="5914">  │     ├── slice-ansi@0.0.4 </tspan>
<tspan x="10" y="5930">  │     └─┬ string-width@2.0.0 </tspan>
<tspan x="10" y="5946">  │       └── is-fullwidth-code-point@2.0.0 </tspan>
<tspan x="10" y="5962">  ├─┬ gulp-filter@5.0.0 </tspan>
<tspan x="10" y="5978">  │ ├─┬ multimatch@2.1.0 </tspan>
<tspan x="10" y="5994">  │ │ ├── array-union@1.0.2 </tspan>
<tspan x="10" y="6010">  │ │ └── arrify@1.0.1 </tspan>
<tspan x="10" y="6026">  │ └── streamfilter@1.0.5 </tspan>
<tspan x="10" y="6042">  ├─┬ gulp-tap@0.1.3 </tspan>
<tspan x="10" y="6058">  │ └─┬ event-stream@3.1.7 </tspan>
<tspan x="10" y="6074">  │   ├── duplexer@0.1.1 </tspan>
<tspan x="10" y="6090">  │   ├── from@0.1.7 </tspan>
<tspan x="10" y="6106">  │   ├── map-stream@0.1.0 </tspan>
<tspan x="10" y="6122">  │   ├── pause-stream@0.0.11 </tspan>
<tspan x="10" y="6138">  │   ├── split@0.2.10 </tspan>
<tspan x="10" y="6154">  │   ├── stream-combiner@0.0.4 </tspan>
<tspan x="10" y="6170">  │   └── through@2.3.8 </tspan>
<tspan x="10" y="6186">  ├─┬ insight@0.8.4 </tspan>
<tspan x="10" y="6202">  │ ├── async@1.5.2 </tspan>
<tspan x="10" y="6218">  │ ├─┬ configstore@1.4.0 </tspan>
<tspan x="10" y="6234">  │ │ ├── graceful-fs@4.1.11 </tspan>
<tspan x="10" y="6250">  │ │ ├── object-assign@4.1.1 </tspan>
<tspan x="10" y="6266">  │ │ ├── osenv@0.1.4 </tspan>
<tspan x="10" y="6282">  │ │ ├── uuid@2.0.3 </tspan>
<tspan x="10" y="6298">  │ │ └─┬ write-file-atomic@1.3.1 </tspan>
<tspan x="10" y="6314">  │ │   └── slide@1.1.6 </tspan>
<tspan x="10" y="6330">  │ ├─┬ inquirer@0.10.1 </tspan>
<tspan x="10" y="6346">  │ │ ├── ansi-escapes@1.4.0 </tspan>
<tspan x="10" y="6362">  │ │ ├─┬ cli-cursor@1.0.2 </tspan>
<tspan x="10" y="6378">  │ │ │ └─┬ restore-cursor@1.0.1 </tspan>
<tspan x="10" y="6394">  │ │ │   └── exit-hook@1.1.1 </tspan>
<tspan x="10" y="6410">  │ │ ├── cli-width@1.1.1 </tspan>
<tspan x="10" y="6426">  │ │ ├─┬ figures@1.7.0 </tspan>
<tspan x="10" y="6442">  │ │ │ └── object-assign@4.1.1 </tspan>
<tspan x="10" y="6458">  │ │ ├── lodash@3.10.1 </tspan>
<tspan x="10" y="6474">  │ │ ├─┬ readline2@1.0.1 </tspan>
<tspan x="10" y="6490">  │ │ │ ├── code-point-at@1.1.0 </tspan>
<tspan x="10" y="6506">  │ │ │ ├── is-fullwidth-code-point@1.0.0 </tspan>
<tspan x="10" y="6522">  │ │ │ └── mute-stream@0.0.5 </tspan>
<tspan x="10" y="6538">  │ │ ├── run-async@0.1.0 </tspan>
<tspan x="10" y="6554">  │ │ └── rx-lite@3.1.2 </tspan>
<tspan x="10" y="6570">  │ ├─┬ lodash.debounce@3.1.1 </tspan>
<tspan x="10" y="6586">  │ │ └── lodash._getnative@3.9.1 </tspan>
<tspan x="10" y="6602">  │ ├── object-assign@4.1.1 </tspan>
<tspan x="10" y="6618">  │ ├─┬ os-name@1.0.3 </tspan>
<tspan x="10" y="6634">  │ │ ├─┬ osx-release@1.1.0 </tspan>
<tspan x="10" y="6650">  │ │ │ └── minimist@1.2.0 </tspan>
<tspan x="10" y="6666">  │ │ └── win-release@1.1.1 </tspan>
<tspan x="10" y="6682">  │ ├─┬ request@2.81.0 </tspan>
<tspan x="10" y="6698">  │ │ ├── aws-sign2@0.6.0 </tspan>
<tspan x="10" y="6714">  │ │ ├── aws4@1.6.0 </tspan>
<tspan x="10" y="6730">  │ │ ├── caseless@0.12.0 </tspan>
<tspan x="10" y="6746">  │ │ ├─┬ combined-stream@1.0.5 </tspan>
<tspan x="10" y="6762">  │ │ │ └── delayed-stream@1.0.0 </tspan>
<tspan x="10" y="6778">  │ │ ├── extend@3.0.0 </tspan>
<tspan x="10" y="6794">  │ │ ├── forever-agent@0.6.1 </tspan>
<tspan x="10" y="6810">  │ │ ├─┬ form-data@2.1.4 </tspan>
<tspan x="10" y="6826">  │ │ │ └── asynckit@0.4.0 </tspan>
<tspan x="10" y="6842">  │ │ ├─┬ har-validator@4.2.1 </tspan>
<tspan x="10" y="6858">  │ │ │ └── har-schema@1.0.5 </tspan>
<tspan x="10" y="6874">  │ │ ├─┬ hawk@3.1.3 </tspan>
<tspan x="10" y="6890">  │ │ │ ├── boom@2.10.1 </tspan>
<tspan x="10" y="6906">  │ │ │ ├── cryptiles@2.0.5 </tspan>
<tspan x="10" y="6922">  │ │ │ ├── hoek@2.16.3 </tspan>
<tspan x="10" y="6938">  │ │ │ └── sntp@1.0.9 </tspan>
<tspan x="10" y="6954">  │ │ ├─┬ http-signature@1.1.1 </tspan>
<tspan x="10" y="6970">  │ │ │ ├── assert-plus@0.2.0 </tspan>
<tspan x="10" y="6986">  │ │ │ ├─┬ jsprim@1.4.0 </tspan>
<tspan x="10" y="7002">  │ │ │ │ ├── assert-plus@1.0.0 </tspan>
<tspan x="10" y="7018">  │ │ │ │ ├── extsprintf@1.0.2 </tspan>
<tspan x="10" y="7034">  │ │ │ │ ├── json-schema@0.2.3 </tspan>
<tspan x="10" y="7050">  │ │ │ │ └── verror@1.3.6 </tspan>
<tspan x="10" y="7066">  │ │ │ └─┬ sshpk@1.11.0 </tspan>
<tspan x="10" y="7082">  │ │ │   ├── asn1@0.2.3 </tspan>
<tspan x="10" y="7098">  │ │ │   ├── assert-plus@1.0.0 </tspan>
<tspan x="10" y="7114">  │ │ │   ├── bcrypt-pbkdf@1.0.1 </tspan>
<tspan x="10" y="7130">  │ │ │   ├─┬ dashdash@1.14.1 </tspan>
<tspan x="10" y="7146">  │ │ │   │ └── assert-plus@1.0.0 </tspan>
<tspan x="10" y="7162">  │ │ │   ├── ecc-jsbn@0.1.1 </tspan>
<tspan x="10" y="7178">  │ │ │   ├─┬ getpass@0.1.6 </tspan>
<tspan x="10" y="7194">  │ │ │   │ └── assert-plus@1.0.0 </tspan>
<tspan x="10" y="7210">  │ │ │   ├── jodid25519@1.0.2 </tspan>
<tspan x="10" y="7226">  │ │ │   ├── jsbn@0.1.1 </tspan>
<tspan x="10" y="7242">  │ │ │   └── tweetnacl@0.14.5 </tspan>
<tspan x="10" y="7258">  │ │ ├── is-typedarray@1.0.0 </tspan>
<tspan x="10" y="7274">  │ │ ├── isstream@0.1.2 </tspan>
<tspan x="10" y="7290">  │ │ ├── json-stringify-safe@5.0.1 </tspan>
<tspan x="10" y="7306">  │ │ ├─┬ mime-types@2.1.15 </tspan>
<tspan x="10" y="7322">  │ │ │ └── mime-db@1.27.0 </tspan>
<tspan x="10" y="7338">  │ │ ├── oauth-sign@0.8.2 </tspan>
<tspan x="10" y="7354">  │ │ ├── performance-now@0.2.0 </tspan>
<tspan x="10" y="7370">  │ │ ├── qs@6.4.0 </tspan>
<tspan x="10" y="7386">  │ │ ├── safe-buffer@5.0.1 </tspan>
<tspan x="10" y="7402">  │ │ ├── stringstream@0.0.5 </tspan>
<tspan x="10" y="7418">  │ │ ├── tunnel-agent@0.6.0 </tspan>
<tspan x="10" y="7434">  │ │ └── uuid@3.0.1 </tspan>
<tspan x="10" y="7450">  │ ├─┬ tough-cookie@2.3.2 </tspan>
<tspan x="10" y="7466">  │ │ └── punycode@1.4.1 </tspan>
<tspan x="10" y="7482">  │ └── uuid@3.0.1 </tspan>
<tspan x="10" y="7498">  ├── lodash@4.17.4 </tspan>
<tspan x="10" y="7514">  ├── semver@5.3.0 </tspan>
<tspan x="10" y="7530">  ├─┬ underscore.string@3.3.4 </tspan>
<tspan x="10" y="7546">  │ ├── sprintf-js@1.0.3 </tspan>
<tspan x="10" y="7562">  │ └── util-deprecate@1.0.2 </tspan>
<tspan x="10" y="7578">  ├─┬ yeoman-generator@0.24.1 </tspan>
<tspan x="10" y="7594">  │ ├── async@2.3.0 </tspan>
<tspan x="10" y="7610">  │ ├─┬ class-extend@0.1.2 </tspan>
<tspan x="10" y="7626">  │ │ └── object-assign@2.1.1 </tspan>
<tspan x="10" y="7642">  │ ├─┬ cli-table@0.3.1 </tspan>
<tspan x="10" y="7658">  │ │ └── colors@1.0.3 </tspan>
<tspan x="10" y="7674">  │ ├─┬ cross-spawn@4.0.2 </tspan>
<tspan x="10" y="7690">  │ │ ├─┬ lru-cache@4.0.2 </tspan>
<tspan x="10" y="7706">  │ │ │ ├── pseudomap@1.0.2 </tspan>
<tspan x="10" y="7722">  │ │ │ └── yallist@2.1.2 </tspan>
<tspan x="10" y="7738">  │ │ └─┬ which@1.2.14 </tspan>
<tspan x="10" y="7754">  │ │   └── isexe@2.0.0 </tspan>
<tspan x="10" y="7770">  │ ├─┬ dargs@4.1.0 </tspan>
<tspan x="10" y="7786">  │ │ └── number-is-nan@1.0.1 </tspan>
<tspan x="10" y="7802">  │ ├─┬ dateformat@1.0.12 </tspan>
<tspan x="10" y="7818">  │ │ ├── get-stdin@4.0.1 </tspan>
<tspan x="10" y="7834">  │ │ └─┬ meow@3.7.0 </tspan>
<tspan x="10" y="7850">  │ │   ├─┬ camelcase-keys@2.1.0 </tspan>
<tspan x="10" y="7866">  │ │   │ └── camelcase@2.1.1 </tspan>
<tspan x="10" y="7882">  │ │   ├── decamelize@1.2.0 </tspan>
<tspan x="10" y="7898">  │ │   ├─┬ loud-rejection@1.6.0 </tspan>
<tspan x="10" y="7914">  │ │   │ ├─┬ currently-unhandled@0.4.1 </tspan>
<tspan x="10" y="7930">  │ │   │ │ └── array-find-index@1.0.2 </tspan>
<tspan x="10" y="7946">  │ │   │ └── signal-exit@3.0.2 </tspan>
<tspan x="10" y="7962">  │ │   ├── map-obj@1.0.1 </tspan>
<tspan x="10" y="7978">  │ │   ├── minimist@1.2.0 </tspan>
<tspan x="10" y="7994">  │ │   ├─┬ normalize-package-data@2.3.6 </tspan>
<tspan x="10" y="8010">  │ │   │ ├── hosted-git-info@2.4.1 </tspan>
<tspan x="10" y="8026">  │ │   │ ├─┬ is-builtin-module@1.0.0 </tspan>
<tspan x="10" y="8042">  │ │   │ │ └── builtin-modules@1.1.1 </tspan>
<tspan x="10" y="8058">  │ │   │ └─┬ validate-npm-package-license@3.0.1 </tspan>
<tspan x="10" y="8074">  │ │   │   ├─┬ spdx-correct@1.0.2 </tspan>
<tspan x="10" y="8090">  │ │   │   │ └── spdx-license-ids@1.2.2 </tspan>
<tspan x="10" y="8106">  │ │   │   └── spdx-expression-parse@1.0.4 </tspan>
<tspan x="10" y="8122">  │ │   ├── object-assign@4.1.1 </tspan>
<tspan x="10" y="8138">  │ │   ├─┬ redent@1.0.0 </tspan>
<tspan x="10" y="8154">  │ │   │ ├── indent-string@2.1.0 </tspan>
<tspan x="10" y="8170">  │ │   │ └── strip-indent@1.0.1 </tspan>
<tspan x="10" y="8186">  │ │   └── trim-newlines@1.0.0 </tspan>
<tspan x="10" y="8202">  │ ├── detect-conflict@1.0.1 </tspan>
<tspan x="10" y="8218">  │ ├─┬ error@7.0.2 </tspan>
<tspan x="10" y="8234">  │ │ └── string-template@0.2.1 </tspan>
<tspan x="10" y="8250">  │ ├─┬ find-up@1.1.2 </tspan>
<tspan x="10" y="8266">  │ │ └─┬ pinkie-promise@2.0.1 </tspan>
<tspan x="10" y="8282">  │ │   └── pinkie@2.0.4 </tspan>
<tspan x="10" y="8298">  │ ├─┬ github-username@2.1.0 </tspan>
<tspan x="10" y="8314">  │ │ └─┬ gh-got@2.4.0 </tspan>
<tspan x="10" y="8330">  │ │   └── object-assign@4.1.1 </tspan>
<tspan x="10" y="8346">  │ ├─┬ gruntfile-editor@1.2.1 </tspan>
<tspan x="10" y="8362">  │ │ └─┬ ast-query@2.0.0 </tspan>
<tspan x="10" y="8378">  │ │   ├─┬ escodegen-wallaby@1.6.11 </tspan>
<tspan x="10" y="8394">  │ │   │ ├── esprima@2.7.3 </tspan>
<tspan x="10" y="8410">  │ │   │ ├── estraverse@1.9.3 </tspan>
<tspan x="10" y="8426">  │ │   │ └─┬ source-map@0.2.0 </tspan>
<tspan x="10" y="8442">  │ │   │   └── amdefine@1.0.1 </tspan>
<tspan x="10" y="8458">  │ │   └── traverse@0.6.6 </tspan>
<tspan x="10" y="8474">  │ ├─┬ html-wiring@1.2.0 </tspan>
<tspan x="10" y="8490">  │ │ ├─┬ cheerio@0.19.0 </tspan>
<tspan x="10" y="8506">  │ │ │ ├─┬ css-select@1.0.0 </tspan>
<tspan x="10" y="8522">  │ │ │ │ ├── boolbase@1.0.0 </tspan>
<tspan x="10" y="8538">  │ │ │ │ ├── css-what@1.0.0 </tspan>
<tspan x="10" y="8554">  │ │ │ │ ├── domutils@1.4.3 </tspan>
<tspan x="10" y="8570">  │ │ │ │ └── nth-check@1.0.1 </tspan>
<tspan x="10" y="8586">  │ │ │ ├─┬ dom-serializer@0.1.0 </tspan>
<tspan x="10" y="8602">  │ │ │ │ └── domelementtype@1.1.3 </tspan>
<tspan x="10" y="8618">  │ │ │ ├── entities@1.1.1 </tspan>
<tspan x="10" y="8634">  │ │ │ ├─┬ htmlparser2@3.8.3 </tspan>
<tspan x="10" y="8650">  │ │ │ │ ├── domelementtype@1.3.0 </tspan>
<tspan x="10" y="8666">  │ │ │ │ ├── domhandler@2.3.0 </tspan>
<tspan x="10" y="8682">  │ │ │ │ ├── domutils@1.5.1 </tspan>
<tspan x="10" y="8698">  │ │ │ │ ├── entities@1.0.0 </tspan>
<tspan x="10" y="8714">  │ │ │ │ └─┬ readable-stream@1.1.14 </tspan>
<tspan x="10" y="8730">  │ │ │ │   ├── isarray@0.0.1 </tspan>
<tspan x="10" y="8746">  │ │ │ │   └── string_decoder@0.10.31 </tspan>
<tspan x="10" y="8762">  │ │ │ └── lodash@3.10.1 </tspan>
<tspan x="10" y="8778">  │ │ └─┬ detect-newline@1.0.3 </tspan>
<tspan x="10" y="8794">  │ │   └── minimist@1.2.0 </tspan>
<tspan x="10" y="8810">  │ ├─┬ istextorbinary@2.1.0 </tspan>
<tspan x="10" y="8826">  │ │ ├── binaryextensions@1.0.1 </tspan>
<tspan x="10" y="8842">  │ │ ├── editions@1.3.3 </tspan>
<tspan x="10" y="8858">  │ │ └── textextensions@1.0.2 </tspan>
<tspan x="10" y="8874">  │ ├─┬ mem-fs-editor@2.3.0 </tspan>
<tspan x="10" y="8890">  │ │ ├── commondir@1.0.1 </tspan>
<tspan x="10" y="8906">  │ │ ├── deep-extend@0.4.1 </tspan>
<tspan x="10" y="8922">  │ │ ├── ejs@2.5.6 </tspan>
<tspan x="10" y="8938">  │ │ ├─┬ globby@4.1.0 </tspan>
<tspan x="10" y="8954">  │ │ │ ├── glob@6.0.4 </tspan>
<tspan x="10" y="8970">  │ │ │ ├── object-assign@4.1.1 </tspan>
<tspan x="10" y="8986">  │ │ │ └── pify@2.3.0 </tspan>
<tspan x="10" y="9002">  │ │ └── vinyl@1.2.0 </tspan>
<tspan x="10" y="9018">  │ ├─┬ nopt@3.0.6 </tspan>
<tspan x="10" y="9034">  │ │ └── abbrev@1.1.0 </tspan>
<tspan x="10" y="9050">  │ ├── path-exists@2.1.0 </tspan>
<tspan x="10" y="9066">  │ ├── pretty-bytes@3.0.1 </tspan>
<tspan x="10" y="9082">  │ ├── read-chunk@1.0.1 </tspan>
<tspan x="10" y="9098">  │ ├─┬ read-pkg-up@1.0.1 </tspan>
<tspan x="10" y="9114">  │ │ └─┬ read-pkg@1.1.0 </tspan>
<tspan x="10" y="9130">  │ │   ├── load-json-file@1.1.0 </tspan>
<tspan x="10" y="9146">  │ │   └── path-type@1.1.0 </tspan>
<tspan x="10" y="9162">  │ ├── rimraf@2.6.1 </tspan>
<tspan x="10" y="9178">  │ ├─┬ run-async@2.3.0 </tspan>
<tspan x="10" y="9194">  │ │ └── is-promise@2.1.0 </tspan>
<tspan x="10" y="9210">  │ ├─┬ shelljs@0.7.7 </tspan>
<tspan x="10" y="9226">  │ │ ├── interpret@1.0.2 </tspan>
<tspan x="10" y="9242">  │ │ └─┬ rechoir@0.6.2 </tspan>
<tspan x="10" y="9258">  │ │   └─┬ resolve@1.3.2 </tspan>
<tspan x="10" y="9274">  │ │     └── path-parse@1.0.5 </tspan>
<tspan x="10" y="9290">  │ ├── text-table@0.2.0 </tspan>
<tspan x="10" y="9306">  │ ├── user-home@2.0.0 </tspan>
<tspan x="10" y="9322">  │ ├── yeoman-assert@2.2.3 </tspan>
<tspan x="10" y="9338">  │ ├─┬ yeoman-environment@1.6.6 </tspan>
<tspan x="10" y="9354">  │ │ ├── diff@2.2.3 </tspan>
<tspan x="10" y="9370">  │ │ ├── grouped-queue@0.3.3 </tspan>
<tspan x="10" y="9386">  │ │ ├─┬ inquirer@1.2.3 </tspan>
<tspan x="10" y="9402">  │ │ │ ├─┬ external-editor@1.1.1 </tspan>
<tspan x="10" y="9418">  │ │ │ │ ├─┬ spawn-sync@1.0.15 </tspan>
<tspan x="10" y="9434">  │ │ │ │ │ └── os-shim@0.1.3 </tspan>
<tspan x="10" y="9450">  │ │ │ │ └── tmp@0.0.29 </tspan>
<tspan x="10" y="9466">  │ │ │ ├── mute-stream@0.0.6 </tspan>
<tspan x="10" y="9482">  │ │ │ └── rx@4.1.0 </tspan>
<tspan x="10" y="9498">  │ │ ├── log-symbols@1.0.2 </tspan>
<tspan x="10" y="9514">  │ │ ├─┬ mem-fs@1.1.3 </tspan>
<tspan x="10" y="9530">  │ │ │ └─┬ vinyl-file@2.0.0 </tspan>
<tspan x="10" y="9546">  │ │ │   └─┬ strip-bom-stream@2.0.0 </tspan>
<tspan x="10" y="9562">  │ │ │     └── first-chunk-stream@2.0.0 </tspan>
<tspan x="10" y="9578">  │ │ └── untildify@2.1.0 </tspan>
<tspan x="10" y="9594">  │ └─┬ yeoman-test@1.6.0 </tspan>
<tspan x="10" y="9610">  │   └─┬ sinon@1.17.7 </tspan>
<tspan x="10" y="9626">  │     ├── formatio@1.1.1 </tspan>
<tspan x="10" y="9642">  │     ├── lolex@1.3.2 </tspan>
<tspan x="10" y="9658">  │     ├── samsam@1.1.2 </tspan>
<tspan x="10" y="9674">  │     └─┬ util@0.10.3 </tspan>
<tspan x="10" y="9690">  │       └── inherits@2.0.1 </tspan>
<tspan x="10" y="9706">  └── yeoman-welcome@1.0.1</tspan>
</text>
</svg>
